<svg width="17" height="16" viewBox="0 0 17 16" fill="none" xmlns="http://www.w3.org/2000/svg">
<g clip-path="url(#clip0_712_10489)">
<path d="M7.58685 1.05269C5.6956 1.31029 3.99021 2.37983 2.91741 3.98088C2.20656 5.04389 1.78265 6.39712 1.78265 7.59709V7.87425L1.61309 7.92969C0.970719 8.13512 0.439211 8.70901 0.26639 9.38074C0.18487 9.69703 0.210957 10.2318 0.321823 10.5481C0.537035 11.1481 1.01311 11.6144 1.62614 11.8231L1.7957 11.8785L1.85113 12.2209C2.02721 13.2643 2.5522 14.1252 3.39674 14.7676C4.09781 15.3023 5.62386 15.798 6.98034 15.9317C7.43359 15.9773 9.55962 15.9773 10.0031 15.9349C10.7955 15.8567 11.6726 15.6512 12.4128 15.3741C13.2019 15.0773 13.5215 14.8882 14.0073 14.4186C14.6269 13.8187 15.041 13.0132 15.1617 12.172L15.204 11.8818L15.3736 11.8231C16.0323 11.5981 16.5573 11.0372 16.7301 10.372C16.7953 10.1177 16.7953 9.6579 16.7334 9.384C16.5801 8.74162 16.0453 8.15468 15.4225 7.94273L15.2269 7.87425L15.2073 7.41448C15.0638 4.12109 12.5759 1.44073 9.28246 1.03313C8.90421 0.987476 8.00097 0.997258 7.58685 1.05269ZM10.0161 2.16136C10.665 2.34722 11.2552 2.62113 11.8063 2.99938C12.1356 3.22437 12.69 3.74284 12.9671 4.08196C13.6813 4.95585 14.128 6.058 14.2389 7.21231C14.2584 7.41774 14.2715 8.46772 14.2715 9.66116C14.2715 11.9209 14.2649 12.0415 14.0921 12.5404C13.8802 13.1632 13.3617 13.8154 12.8204 14.1415C12.1715 14.5295 10.8607 14.8947 9.7781 14.9925C9.18137 15.0447 7.23143 15.0154 6.7847 14.9436C5.78364 14.7904 4.7304 14.4676 4.17607 14.1415C3.88912 13.9719 3.36413 13.4306 3.17175 13.1078C2.99567 12.8078 2.81306 12.3154 2.76415 11.9894C2.7185 11.7057 2.7185 7.63948 2.76089 7.19275C2.87502 6.06452 3.28262 5.04063 3.9576 4.17326C4.64236 3.28959 5.63364 2.58852 6.68687 2.23962C6.89556 2.17114 6.93143 2.16788 7.2249 2.20049C8.3564 2.33092 9.23681 3.11025 9.45854 4.18304C9.60528 4.8939 9.06725 5.56236 8.33683 5.57866C8.04988 5.58192 7.86076 5.50692 7.67489 5.30802C7.22816 4.83194 7.42381 4.18631 8.03684 4.12109C8.41835 4.0787 8.614 3.73958 8.43792 3.4135C8.34661 3.24068 8.19988 3.16894 7.95206 3.17546C7.59011 3.18524 7.24773 3.32872 6.98034 3.58306C6.63796 3.90588 6.47818 4.27109 6.47818 4.72434C6.47818 5.23954 6.65101 5.64714 7.01621 6.01235C7.38468 6.37755 7.79554 6.54385 8.31727 6.54385C9.51723 6.54385 10.5248 5.47758 10.4433 4.29391C10.3911 3.51784 10.0716 2.86243 9.46832 2.28201L9.16181 1.98854L9.44224 2.03419C9.59549 2.05701 9.85636 2.11571 10.0161 2.16136ZM1.78265 9.86985V10.8513L1.69135 10.8024C1.55766 10.734 1.32941 10.4764 1.25115 10.3003C1.19571 10.1829 1.17941 10.0851 1.17941 9.86985C1.17941 9.54704 1.24463 9.37421 1.44353 9.15248C1.54462 9.03835 1.73374 8.89162 1.77613 8.89162C1.77939 8.89162 1.78265 9.33182 1.78265 9.86985ZM15.5399 9.13618C15.7519 9.36769 15.8171 9.54051 15.8171 9.86985C15.8171 10.0818 15.8008 10.1829 15.7486 10.3003C15.6703 10.4731 15.4421 10.734 15.3084 10.8024L15.2171 10.8513V9.86985V8.88836L15.3084 8.93727C15.3573 8.96336 15.4616 9.0514 15.5399 9.13618Z" fill="#133769"/>
<path d="M4.83792 8.02418C4.30315 8.21656 4.14011 8.89807 4.53141 9.31219C4.6814 9.4687 4.86075 9.5437 5.09552 9.5437C5.68573 9.5437 6.06724 8.93393 5.79659 8.41221C5.62051 8.06657 5.19987 7.89701 4.83792 8.02418Z" fill="#133769"/>
<path d="M11.6332 8.02091C11.4538 8.08939 11.2679 8.26873 11.1799 8.46112C11.0169 8.81981 11.1473 9.22741 11.4995 9.4361C11.6495 9.5274 11.7082 9.5437 11.881 9.5437C12.119 9.5437 12.256 9.49479 12.419 9.35131C12.8005 9.01545 12.7451 8.36656 12.3081 8.09917C12.1288 7.98831 11.8158 7.95244 11.6332 8.02091Z" fill="#133769"/>
<path d="M6.71334 11.598C6.4916 11.735 6.41334 12.0285 6.54051 12.2404C6.71334 12.5241 7.33615 12.9056 7.83179 13.036C8.17743 13.1241 8.70894 13.1339 9.07088 13.0523C9.39696 12.9806 9.92195 12.7295 10.1796 12.5208C10.4958 12.2632 10.5871 12.035 10.4632 11.7937C10.3263 11.5198 9.97086 11.4513 9.72304 11.6502C9.25023 12.0285 9.04806 12.1198 8.61437 12.1426C8.12852 12.1719 7.75679 12.0513 7.39158 11.7546C7.29376 11.673 7.17963 11.5915 7.1405 11.5719C7.03289 11.5133 6.83399 11.5263 6.71334 11.598Z" fill="#133769"/>
</g>
<defs>
<clipPath id="clip0_712_10489">
<rect width="16.63" height="15.0322" fill="white" transform="translate(0.18457 0.967773)"/>
</clipPath>
</defs>
</svg>
