<?xml version="1.0" encoding="utf-8"?>
<!-- Generator: Adobe Illustrator 17.0.0, SVG Export Plug-In . SVG Version: 6.00 Build 0)  -->
<!DOCTYPE svg PUBLIC "-//W3C//DTD SVG 1.1//EN" "http://www.w3.org/Graphics/SVG/1.1/DTD/svg11.dtd">
<svg version="1.1" xmlns="http://www.w3.org/2000/svg" xmlns:xlink="http://www.w3.org/1999/xlink" x="0px" y="0px" width="63px"
	 height="69px" viewBox="0 0 63 69" enable-background="new 0 0 63 69" xml:space="preserve">
<g id="Forma_1_copy_12_1_" enable-background="new    ">
	<g id="Forma_1_copy_12">
		<g>
			<path fill="#PRIMARYCOLOR" d="M36.715,25.939c-8.24,0-7.491,0-15.733,0c-2.068,0-2.068,3.23,0,3.23c8.242,0,7.492,0,15.733,0
				C38.785,29.169,38.785,25.939,36.715,25.939z M36.715,35.603c-8.24,0-7.491,0-15.733,0c-2.068,0-2.068,3.229,0,3.229
				c8.242,0,7.492,0,15.733,0C38.785,38.833,38.785,35.603,36.715,35.603z M36.715,15.712c-8.24,0-7.491,0-15.733,0
				c-2.068,0-2.068,3.23,0,3.23c8.242,0,7.492,0,15.733,0C38.785,18.942,38.785,15.712,36.715,15.712z M36.715,46.462
				c-8.24,0-7.491,0-15.733,0c-2.068,0-2.068,3.23,0,3.23c8.242,0,7.492,0,15.733,0C38.785,49.692,38.785,46.462,36.715,46.462z
				 M16.191,13.703l-2.975,3.938l-1.955-1.884l-1.488,1.404l3.722,3.586l3.98-5.763L16.191,13.703z M16.191,24.594l-2.975,3.938
				l-1.955-1.885l-1.488,1.404l3.722,3.587l3.98-5.763L16.191,24.594z M16.191,34.203l-2.975,3.938l-1.955-1.885L9.773,37.66
				l3.722,3.587l3.98-5.763L16.191,34.203z M11.261,46.507L9.773,47.91l3.722,3.587l3.98-5.763l-1.284-1.281l-2.975,3.938
				L11.261,46.507z M46.329,4.373h-6.962V1.53H9.164v2.842H1.42v58.472c0,0,23.96,0.099,36.892,0.153
				c-0.851-0.757-1.42-4.447-1.42-4.447c-12.022,0.005-31.218,0.013-31.218,0.013V8.653h3.49v2.842h30.203V8.653h2.707
				c0,0-0.082,9.907-0.082,21.162c0,0.225,4.351,0,4.351,0C46.337,16.63,46.329,4.373,46.329,4.373z"/>
		</g>
	</g>
</g>
<g id="Forma_1_1_" enable-background="new    ">
	<g id="Forma_1">
		<g>
			<path fill="#SECONDARYCOLOR" d="M54.941,43.593c0.427-0.786,0.651-1.669,0.651-2.566v-3.202h1.044v-1.036
				c0-1.074-0.859-1.945-1.919-1.945H43.964c-1.059,0-1.919,0.871-1.919,1.945v1.036h1.043v3.202c0,0.898,0.224,1.78,0.651,2.566
				l2.055,3.783c0.202,0.372,0.195,0.823-0.017,1.189l-1.968,3.397c-0.473,0.816-0.723,1.746-0.723,2.693v3.474h-1.043v1.036
				c0,1.074,0.859,1.945,1.919,1.945h10.753c1.06,0,1.919-0.871,1.919-1.945v-1.036h-1.044v-3.474c0-0.947-0.249-1.877-0.723-2.693
				l-1.961-3.384c-0.217-0.373-0.223-0.835-0.017-1.214L54.941,43.593z M51.223,48.998l2.069,3.572
				c0.416,0.718,0.635,1.536,0.635,2.369v3.19h-1.164c-0.53-0.743-1.858-1.273-3.423-1.273c-1.566,0-2.894,0.53-3.424,1.273h-1.164
				v-3.19c0-0.833,0.219-1.651,0.635-2.369l2.069-3.572c0.358-0.618,0.369-1.381,0.027-2.009l-2.159-3.973
				c-0.376-0.691-0.573-1.468-0.573-2.257v-2.934h9.175v2.934h0.001c0,0.789-0.197,1.566-0.573,2.257l-2.159,3.973
				C50.855,47.616,50.865,48.38,51.223,48.998z M46.815,43.319l1.915,3.532c0.122,0.226,0.356,0.366,0.61,0.366
				c0.254,0,0.488-0.141,0.61-0.366l1.915-3.532H46.815z"/>
		</g>
	</g>
</g>
</svg>
