<svg width="15" height="17" viewBox="0 0 15 17" fill="none" xmlns="http://www.w3.org/2000/svg">
<g clip-path="url(#clip0_712_10475)">
<path d="M5.51292 0.651922C4.86448 0.714767 4.33601 0.826174 3.7704 1.01185C2.5335 1.41749 1.65939 2.09736 1.19376 3.01718C1.02522 3.34854 0.856683 3.87701 0.856683 4.0684C0.856683 4.10268 0.830974 4.17695 0.799552 4.23123C0.522462 4.71685 0.313931 5.28245 0.313931 5.54526C0.313931 5.73094 0.38249 5.89662 0.513893 6.02517C0.739563 6.25369 1.03379 6.30797 1.35944 6.18228C1.39372 6.17085 1.39944 6.33653 1.39944 7.36776V8.56467L1.26518 8.61609C0.736707 8.81034 0.293935 9.26454 0.111114 9.80158C0.0254159 10.0558 0.00256322 10.5443 0.0682648 10.8014C0.202524 11.3384 0.585307 11.8212 1.05664 12.0497C1.1909 12.1154 1.34802 12.1783 1.40515 12.1897C1.50227 12.2068 1.51656 12.2183 1.54226 12.3268C1.85363 13.5351 2.32783 14.3864 3.15624 15.2177C4.06178 16.1261 5.10158 16.6688 6.38418 16.9002C6.78125 16.9716 7.67536 16.9888 8.11242 16.9316C9.27791 16.7774 10.3606 16.3032 11.2461 15.5605C12.1602 14.7949 12.8658 13.6694 13.16 12.5039L13.2343 12.2125L13.4085 12.1611C13.857 12.0297 14.2969 11.6584 14.5083 11.227C14.6597 10.9156 14.7111 10.7043 14.7111 10.3872C14.7111 9.79872 14.474 9.30453 14.017 8.93032C13.8799 8.81605 13.5514 8.63323 13.4057 8.59038L13.3428 8.57039L13.3343 5.93661L13.3257 3.30284L13.26 3.10288C13.1086 2.65725 12.8315 2.25447 12.503 2.01166C12.2859 1.85169 11.9317 1.68315 11.6803 1.62031C11.4461 1.56317 10.9662 1.56032 10.7033 1.61745L10.5091 1.65744L9.53215 1.32608C8.09814 0.843313 7.80105 0.763329 7.02692 0.674775C6.70698 0.637639 5.79573 0.623356 5.51292 0.651922ZM7.06691 1.70315C7.61252 1.78027 7.95245 1.87169 8.98082 2.21733L10.0121 2.56584L10.0378 3.22571L10.0635 3.88844L9.98063 3.99413C9.83494 4.18552 9.41788 4.60544 9.18364 4.79398C8.45521 5.37958 7.52968 5.77093 6.587 5.88805C6.14994 5.94518 5.32153 5.9109 4.91018 5.82235C4.29316 5.68809 3.7904 5.48527 3.14481 5.10534C2.74203 4.86825 2.56778 4.81683 2.17071 4.81683C1.99075 4.81683 1.79364 4.82826 1.73366 4.83968C1.63082 4.86253 1.62511 4.85968 1.65367 4.80826C1.69652 4.72827 1.91076 4.5226 2.04788 4.42833C2.3364 4.22837 2.79345 4.1341 3.12482 4.20266C3.21623 4.22266 3.41619 4.2855 3.56759 4.34835C4.26745 4.62829 5.00731 4.60258 5.67289 4.27408C6.06139 4.08269 6.46131 3.74561 6.59271 3.49708C6.64128 3.41139 6.63556 3.16001 6.587 3.06288C6.52701 2.94862 6.36133 2.8115 6.25564 2.78865C6.20422 2.77722 6.10709 2.77722 6.03568 2.78865C5.92713 2.80579 5.87285 2.84007 5.65861 3.04003C5.2844 3.39139 4.99302 3.51708 4.55597 3.51708C4.30173 3.51708 4.14747 3.47995 3.82468 3.34854C3.70185 3.29998 3.51046 3.23999 3.39619 3.21428C3.16195 3.16572 2.59635 3.15715 2.41352 3.2C2.35068 3.21714 2.2964 3.22285 2.28783 3.21714C2.2707 3.19714 2.47923 2.94862 2.68204 2.75151C3.00484 2.43443 3.39905 2.18591 3.81611 2.03451C4.05321 1.94881 4.80449 1.7717 5.17013 1.71457C5.74716 1.62602 6.49559 1.62031 7.06691 1.70315ZM11.4403 2.61726C11.7917 2.71152 12.0717 2.93719 12.2202 3.25427L12.2973 3.4171L12.3059 5.39386C12.3116 6.87643 12.3059 7.37348 12.2802 7.37348C12.2116 7.37348 11.8888 7.19637 11.7317 7.07068C11.5432 6.92214 11.3347 6.65647 11.2347 6.43366C11.0918 6.11372 11.0861 6.04231 11.0661 4.25122L11.0461 2.57441H11.1575C11.2204 2.57441 11.3461 2.5944 11.4403 2.61726ZM10.1235 6.32225C10.2406 6.82215 10.4777 7.25636 10.8376 7.62771C11.189 7.9905 11.5946 8.23331 12.0802 8.37328L12.3145 8.44184L12.303 10.0872C12.2945 11.6584 12.2888 11.7412 12.2288 12.0154C11.8917 13.5266 10.949 14.752 9.60356 15.4291C7.90103 16.286 5.84429 16.0889 4.35029 14.9234C3.41047 14.195 2.75917 13.1438 2.50779 11.9554L2.44209 11.6441L2.43352 8.76464C2.43066 7.01355 2.43638 5.88805 2.45352 5.88805C2.4678 5.88805 2.62777 5.9766 2.81059 6.08515C4.82734 7.28207 7.39542 7.21922 9.35504 5.92233C9.54357 5.79664 9.77496 5.63096 9.86922 5.55383L10.0406 5.411L10.0578 5.77093C10.0692 5.96803 10.0978 6.21656 10.1235 6.32225ZM1.39944 10.3872C1.39944 11.0299 1.39658 11.0585 1.34802 11.0328C1.28232 10.9985 1.15948 10.8214 1.09664 10.6728C1.02808 10.5129 1.03379 10.2186 1.10521 10.0558C1.1652 9.92441 1.32802 9.71588 1.37373 9.71588C1.38801 9.71588 1.39944 10.0101 1.39944 10.3872ZM13.46 9.79301C13.6485 9.99297 13.7399 10.3872 13.6571 10.6386C13.6142 10.77 13.4628 10.9956 13.3943 11.0328C13.3428 11.0585 13.34 11.0385 13.34 10.3872C13.34 10.0187 13.3514 9.71588 13.3628 9.71588C13.3771 9.71588 13.42 9.75016 13.46 9.79301Z" fill="#133769"/>
<path d="M3.79322 9.32425C3.55613 9.40709 3.30189 9.57848 3.20762 9.71845C3.07336 9.92127 3.08479 10.1641 3.23619 10.3355C3.44758 10.5754 3.72181 10.5726 4.05317 10.3298C4.20457 10.2184 4.29598 10.2384 4.58735 10.444C4.64449 10.484 4.71304 10.5012 4.82731 10.5012C5.03584 10.5012 5.20723 10.3955 5.28722 10.2212C5.43862 9.88699 5.26437 9.59276 4.7816 9.36709C4.60449 9.28425 4.55308 9.27283 4.28456 9.26426C4.03032 9.25854 3.95605 9.26711 3.79322 9.32425Z" fill="#133769"/>
<path d="M10.1414 9.299C9.84433 9.37898 9.53582 9.59608 9.44441 9.78462C9.31015 10.0646 9.47012 10.4074 9.77292 10.4873C9.92717 10.5302 10.0614 10.4988 10.23 10.3816C10.4585 10.2245 10.5728 10.2302 10.8184 10.4131C11.0584 10.5873 11.4183 10.4959 11.5583 10.2217C11.6154 10.116 11.6154 9.88746 11.5583 9.77891C11.4669 9.59894 11.1612 9.3847 10.887 9.30471C10.7042 9.25044 10.3271 9.24758 10.1414 9.299Z" fill="#133769"/>
<path d="M5.07519 11.6297C5.02948 11.644 4.97521 11.6725 4.9495 11.6925C4.87237 11.7554 4.76953 12.0067 4.76953 12.1296C4.76953 12.4924 5.37227 13.2436 5.93788 13.5836C7.23762 14.3663 8.96872 14.0178 9.83141 12.798C10.1485 12.3524 10.2085 12.1182 10.0771 11.8582C9.99423 11.6982 9.88283 11.6154 9.74285 11.6154C9.58574 11.6154 9.49719 11.6754 9.35721 11.8696C9.06013 12.2838 8.72305 12.5781 8.3317 12.7723C8.01176 12.9266 7.78323 12.9837 7.45473 12.9808C6.752 12.9808 6.1007 12.6038 5.58652 11.9096C5.49796 11.7868 5.40369 11.6754 5.37513 11.6611C5.29229 11.6182 5.15803 11.604 5.07519 11.6297Z" fill="#133769"/>
</g>
<defs>
<clipPath id="clip0_712_10475">
<rect width="14.74" height="16.3968" fill="white" transform="translate(-0.000976562 0.603271)"/>
</clipPath>
</defs>
</svg>
