<svg width="26" height="31" viewBox="0 0 26 31" fill="none" xmlns="http://www.w3.org/2000/svg">
<path d="M12.9988 30.9863C9.82196 31.1044 6.66502 30.446 3.81148 29.0701C2.68246 28.5476 1.72614 27.7235 1.05205 26.6922C0.377955 25.6608 0.013353 24.4639 0 23.2385C0.13243 20.753 1.09694 18.38 2.74377 16.4878C4.55691 14.2321 6.94029 12.4821 9.65658 11.412C9.36237 11.2579 9.11529 11.0297 8.94072 10.7507C8.76616 10.4718 8.67042 10.1522 8.66336 9.82493C8.69789 9.29298 8.94507 8.79596 9.35106 8.44209C9.75705 8.08822 10.289 7.90615 10.8311 7.93552C9.37711 7.19731 8.18508 6.04392 7.41204 4.62733C6.639 3.21074 6.32124 1.59743 6.50062 0C7.90562 0.908841 9.49505 1.50695 11.1588 1.75288C11.6358 1.04479 12.2635 0.446743 12.9988 0C13.7363 0.444655 14.3653 1.04307 14.8412 1.75288C16.5049 1.50679 18.0943 0.908702 19.4994 0C19.6794 1.59812 19.3617 3.21229 18.5881 4.62947C17.8146 6.04664 16.6215 7.20022 15.1665 7.93795C15.7084 7.90923 16.2399 8.09153 16.6458 8.44527C17.0516 8.79901 17.299 9.29565 17.3342 9.82736C17.3274 10.1547 17.2317 10.4744 17.0571 10.7534C16.8825 11.0324 16.6353 11.2606 16.3409 11.4145C19.0579 12.4833 21.4422 14.2326 23.2562 16.4878C24.9031 18.38 25.8676 20.753 26 23.2385C25.9871 24.4634 25.6232 25.6599 24.9501 26.6912C24.2769 27.7225 23.3216 28.5469 22.1935 29.0701C19.3376 30.4469 16.178 31.1054 12.9988 30.9863V30.9863ZM10.7516 22.7387C10.5756 22.7352 10.4026 22.7836 10.255 22.8777C10.181 22.9227 10.1184 22.9836 10.072 23.0558C10.0255 23.128 9.99639 23.2097 9.98682 23.2946C9.98331 23.3756 9.99897 23.4562 10.0326 23.5303C10.0662 23.6043 10.1168 23.6696 10.1805 23.7212C10.7644 24.2904 11.5019 24.6838 12.306 24.8549V26.164C12.3278 26.3387 12.4175 26.4983 12.5563 26.6096C12.6951 26.7208 12.8723 26.7752 13.0509 26.7613C13.2295 26.7752 13.4067 26.7208 13.5455 26.6096C13.6843 26.4983 13.774 26.3387 13.7958 26.164V24.8671C14.3945 24.8023 14.9516 24.535 15.3715 24.1111C15.7915 23.6872 16.0482 23.1331 16.0976 22.5437C16.0114 21.8365 15.6472 21.1904 15.0827 20.7431C14.5181 20.2959 13.7979 20.0829 13.0757 20.1496C12.7148 20.1834 12.3547 20.0774 12.0723 19.8542C11.7898 19.6311 11.6072 19.3084 11.5636 18.955C11.58 18.6994 11.6782 18.4553 11.844 18.2575C12.0098 18.0596 12.2349 17.9182 12.4873 17.8531C12.6761 17.7909 12.8741 17.7596 13.0732 17.7604C13.6187 17.7753 14.1432 17.9693 14.5631 18.3114C14.7196 18.4262 14.9103 18.4869 15.1057 18.4843C15.301 18.4817 15.49 18.4157 15.6432 18.2968C15.7085 18.2467 15.7615 18.1827 15.798 18.1097C15.8346 18.0366 15.8538 17.9564 15.8543 17.875C15.8509 17.7921 15.8284 17.711 15.7884 17.638C15.7484 17.5649 15.6919 17.5017 15.6233 17.4533C15.0916 17.0411 14.4678 16.7587 13.8033 16.6292V15.4103C13.7814 15.2356 13.6918 15.076 13.553 14.9647C13.4142 14.8535 13.237 14.7991 13.0584 14.813C12.8797 14.7991 12.7025 14.8535 12.5637 14.9647C12.4249 15.076 12.3353 15.2356 12.3134 15.4103V16.6536C12.1831 16.6817 12.0545 16.7176 11.9286 16.7609C11.4258 16.8909 10.9773 17.1726 10.6463 17.5663C10.3153 17.96 10.1185 18.4457 10.0837 18.955C10.1704 19.6618 10.5349 20.3073 11.0994 20.754C11.6638 21.2008 12.3837 21.4134 13.1055 21.3467C13.4668 21.313 13.8272 21.4193 14.1098 21.643C14.3923 21.8666 14.5746 22.1899 14.6177 22.5437C14.5746 22.8964 14.393 23.2187 14.1114 23.4418C13.8299 23.6649 13.4707 23.7713 13.1105 23.7383H13.0658C12.4055 23.7064 11.7831 23.4262 11.3277 22.9557C11.1708 22.814 10.9648 22.7364 10.7516 22.7387V22.7387Z" fill="#027A99"/>
</svg>
