<svg width="52" height="52" viewBox="0 0 52 52" fill="none" xmlns="http://www.w3.org/2000/svg">
<g clip-path="url(#clip0_7124_3620)">
<path d="M14.3771 7.25156C14.8477 6.9806 15.3934 6.86919 15.9326 6.93397C16.4718 6.99875 16.9755 7.23624 17.3686 7.61097L32.5632 21.8169L45.0307 18.4812C45.9345 18.2447 46.8951 18.3754 47.7028 18.8449C48.5105 19.3143 49.0996 20.0843 49.3415 20.9867C49.5833 21.889 49.4582 22.8504 48.9935 23.6609C48.5289 24.4713 47.7623 25.0649 46.8614 25.3121L9.6848 35.2463C9.18305 35.3809 8.65079 35.345 8.17164 35.1443C7.6925 34.9436 7.29361 34.5893 7.03765 34.1373L2.62215 26.4894C2.52901 26.3342 2.4736 26.1593 2.46036 25.9788C2.44712 25.7982 2.47643 25.6171 2.54592 25.45C2.61541 25.2828 2.72316 25.1343 2.86049 25.0164C2.99782 24.8984 3.1609 24.8144 3.33663 24.7709L4.11467 24.5665C4.46618 24.4703 4.83537 24.4578 5.19258 24.5301C5.54979 24.6024 5.88505 24.7575 6.17142 24.9829L9.88526 27.8975L21.5655 24.7462L13.4615 10.7097C13.1242 10.1304 13.0309 9.44086 13.202 8.79276C13.373 8.14465 13.7944 7.591 14.3736 7.25356M13.2901 5.37689C12.2151 6.00243 11.4319 7.02856 11.112 8.23048C10.7922 9.43239 10.9618 10.7121 11.5837 11.7892L18.2797 23.387L10.3738 25.5197L7.508 23.276C6.95512 22.8405 6.3075 22.5412 5.61753 22.4023C4.92755 22.2635 4.21459 22.289 3.53629 22.4768L2.78636 22.6719C2.28879 22.8008 1.82787 23.0434 1.43981 23.3805C1.05175 23.7175 0.747093 24.14 0.549764 24.6146C0.352435 25.0893 0.267803 25.6032 0.30251 26.116C0.337217 26.6289 0.49032 27.1267 0.749799 27.5704L5.1663 35.22C5.65666 36.0863 6.42116 36.7649 7.33948 37.149C8.25779 37.5332 9.27777 37.6011 10.2389 37.342L47.4238 27.4122C48.886 27.0228 50.1335 26.0685 50.8921 24.7593C51.6506 23.4501 51.858 21.8931 51.4686 20.431C51.0792 18.9689 50.125 17.7213 48.8157 16.9627C47.5065 16.2042 45.9496 15.9968 44.4874 16.3862L33.1681 19.4146L18.8482 6.02578C18.115 5.33521 17.1789 4.89904 16.1785 4.78182C15.1781 4.66459 14.1666 4.87254 13.2936 5.37489L13.2901 5.37689Z" fill="#1F212B"/>
<path d="M48.75 49.8115H3.25C2.96264 49.8115 2.68705 49.6974 2.48385 49.4942C2.28066 49.291 2.1665 49.0154 2.1665 48.728C2.1665 48.4407 2.28066 48.1651 2.48385 47.9619C2.68705 47.7587 2.96264 47.6445 3.25 47.6445H48.75C49.0374 47.6445 49.313 47.7587 49.5162 47.9619C49.7194 48.1651 49.8335 48.4407 49.8335 48.728C49.8335 49.0154 49.7194 49.291 49.5162 49.4942C49.313 49.6974 49.0374 49.8115 48.75 49.8115Z" fill="#1F212B"/>
</g>
<defs>
<clipPath id="clip0_7124_3620">
<rect width="52" height="52" fill="white"/>
</clipPath>
</defs>
</svg>
