<svg width="15" height="17" viewBox="0 0 15 17" fill="none" xmlns="http://www.w3.org/2000/svg">
<path fill-rule="evenodd" clip-rule="evenodd" d="M3.55438 2.63704C3.75268 2.44486 4.06922 2.44983 4.2614 2.64813C4.83952 3.24467 5.53164 3.71895 6.29664 4.0428C7.06163 4.36664 7.88391 4.53345 8.71463 4.53332L8.71604 4.53332C9.5543 4.53554 10.3843 4.36779 11.1559 4.04021C11.4101 3.9323 11.7036 4.05088 11.8115 4.30506C11.9195 4.55925 11.8009 4.85278 11.5467 4.9607C10.6509 5.341 9.68732 5.53579 8.71415 5.53332C7.74966 5.53339 6.79499 5.33968 5.9068 4.96368C5.01841 4.5876 4.21467 4.03682 3.54329 3.34406C3.35111 3.14576 3.35608 2.82922 3.55438 2.63704ZM8.71415 5.53332C8.7139 5.53331 8.71364 5.53331 8.71339 5.53331L8.71471 5.03332L8.7148 5.53332C8.71458 5.53332 8.71437 5.53332 8.71415 5.53332Z" fill="#133769"/>
<path fill-rule="evenodd" clip-rule="evenodd" d="M7.36847 1.5C5.41535 1.5 3.83203 3.08332 3.83203 5.03644C3.83203 6.98956 5.41535 8.57287 7.36847 8.57287C9.32159 8.57287 10.9049 6.98956 10.9049 5.03644C10.9049 3.08332 9.32159 1.5 7.36847 1.5ZM2.83203 5.03644C2.83203 2.53103 4.86306 0.5 7.36847 0.5C9.87387 0.5 11.9049 2.53103 11.9049 5.03644C11.9049 7.54184 9.87387 9.57287 7.36847 9.57287C4.86306 9.57287 2.83203 7.54184 2.83203 5.03644Z" fill="#133769"/>
<path fill-rule="evenodd" clip-rule="evenodd" d="M7.7345 10.0276C8.00397 9.96723 8.27133 10.1368 8.33167 10.4062L9.22796 14.4086C9.26351 14.5686 9.25835 14.7357 9.21262 14.8931C9.16689 15.0504 9.08224 15.1937 8.96649 15.3097L8.06212 16.2141C8.06205 16.2141 8.06218 16.214 8.06212 16.2141C7.9716 16.3046 7.86394 16.3767 7.74565 16.4257C7.62727 16.4748 7.50039 16.5 7.37226 16.5C7.24413 16.5 7.11725 16.4748 6.99887 16.4257C6.88058 16.3767 6.77311 16.3048 6.6826 16.2143L5.7784 15.3101C5.66265 15.1941 5.57763 15.0504 5.5319 14.8931C5.48618 14.7357 5.48084 14.5694 5.51638 14.4094C5.51638 14.4094 5.51638 14.4095 5.51638 14.4094L6.40554 10.4071C6.46542 10.1375 6.7325 9.9675 7.00207 10.0274C7.18051 10.067 7.31532 10.1975 7.3687 10.3593C7.42198 10.1977 7.55642 10.0675 7.7345 10.0276ZM7.36875 10.6824L6.49554 14.613L7.37226 15.4897L8.24896 14.613L7.36875 10.6824ZM7.35462 15.5074C7.35455 15.5074 7.35468 15.5073 7.35462 15.5074Z" fill="#133769"/>
<path fill-rule="evenodd" clip-rule="evenodd" d="M3.10242 11.4264C4.33597 10.509 5.83228 10.0137 7.36952 10.0137C8.90675 10.0137 10.4031 10.509 11.6366 11.4264C12.8702 12.3437 13.7753 13.6341 14.2177 15.1062C14.2972 15.3707 14.1473 15.6495 13.8828 15.729C13.6184 15.8085 13.3395 15.6585 13.2601 15.3941C12.8795 14.1278 12.1009 13.0178 11.0399 12.2288C9.97884 11.4398 8.69178 11.0137 7.36952 11.0137C6.04725 11.0137 4.76019 11.4398 3.69915 12.2288C2.6381 13.0178 1.85957 14.1278 1.47897 15.3941C1.39949 15.6585 1.12067 15.8085 0.856212 15.729C0.591756 15.6495 0.441808 15.3707 0.521292 15.1062C0.963769 13.6341 1.86888 12.3437 3.10242 11.4264Z" fill="#133769"/>
</svg>
