<svg width="51" height="52" viewBox="0 0 51 52" fill="none" xmlns="http://www.w3.org/2000/svg">
<path d="M31.4338 11.9407C32.6995 11.9425 33.9239 12.0193 35.1653 12.2776C35.2922 12.3035 35.2925 12.3039 35.4221 12.3303C38.832 13.0478 41.796 14.6566 44.3967 16.9456C44.5167 17.0464 44.5167 17.0468 44.6389 17.1497C45.1278 17.5627 45.5431 18.011 45.9534 18.5012C46.0718 18.6372 46.0717 18.6379 46.1926 18.7766C47.8643 20.7222 49.0665 22.9245 49.8948 25.3469C49.9338 25.4589 49.9339 25.4593 49.9739 25.5735C51.0212 28.6244 51.2307 32.2553 50.5168 35.4084C50.4963 35.5018 50.4756 35.5955 50.4543 35.6917C49.2964 40.8087 46.3121 45.1876 41.9075 48.0637C41.3677 48.3994 40.8118 48.7036 40.2483 48.9973C40.1794 49.0335 40.1102 49.0695 40.0393 49.1067C37.7118 50.3103 35.0093 51.0776 32.3792 51.092C32.293 51.0927 32.2062 51.0933 32.1174 51.094C31.9354 51.095 31.7534 51.0956 31.5715 51.0959C31.3001 51.0969 31.0285 51.1004 30.7571 51.1038C29.2 51.1136 27.6777 50.9385 26.1741 50.5208C26.0934 50.4988 26.0121 50.4759 25.929 50.4534C23.9845 49.9089 22.1175 49.0797 20.4368 47.9592C20.3783 47.9206 20.3191 47.8819 20.259 47.842C19.3713 47.2477 18.5738 46.589 17.8079 45.845C17.6307 45.6735 17.4518 45.5036 17.2727 45.3342C13.7406 41.9506 11.754 37.0702 11.5969 32.2092C11.4839 26.6355 13.5089 21.6219 17.3499 17.6116C20.9804 13.9021 26.0506 11.945 31.2043 11.9407C31.3177 11.9406 31.318 11.9408 31.4338 11.9407ZM30.2903 40.4915C28.45 40.4915 25.995 40.9096 24.3782 41.8401C24.2865 42.0722 24.2617 42.2077 24.3254 42.4504C24.3554 42.5171 24.3853 42.5838 24.4163 42.6526C24.4498 42.7279 24.4833 42.8033 24.5178 42.8811C24.5552 42.9609 24.5928 43.041 24.6311 43.1233C24.6691 43.2063 24.7072 43.2898 24.7463 43.3752C25.8311 45.7065 27.3178 47.9444 29.7356 49.0149C29.9847 49.1176 29.9851 49.1181 30.2903 49.1008V40.4915ZM32.1575 49.1008C34.0929 48.6708 35.5065 47.2483 36.5725 45.6126C37.0287 44.8933 37.4111 44.1392 37.7756 43.3704C37.8519 43.2098 37.9311 43.0501 38.01 42.8909C38.049 42.8094 38.088 42.7278 38.1282 42.6438C38.1605 42.5769 38.1926 42.5095 38.2258 42.4407C38.2976 42.1808 38.3044 42.0807 38.1731 41.8401C37.906 41.7132 37.6618 41.6177 37.3821 41.5286C37.3024 41.5022 37.2221 41.4758 37.1399 41.4485C36.8973 41.3692 36.6542 41.2923 36.4104 41.217C36.2828 41.177 36.1551 41.1371 36.0237 41.0959C34.783 40.737 33.4509 40.4915 32.1575 40.4915V49.1008ZM22.511 42.8772C22.1489 42.8772 21.8697 43.1465 21.5774 43.344C21.5079 43.3905 21.4381 43.4367 21.3665 43.4846C20.7896 43.876 20.2436 44.2951 19.7102 44.7444C19.9205 45.2212 20.2328 45.4389 20.6438 45.7424C20.7172 45.7969 20.7909 45.8514 20.8665 45.9075C22.1984 46.8728 23.9682 48.0154 25.6223 48.2708C25.5005 48.1138 25.5004 48.1137 25.3762 47.9534C24.2205 46.4017 23.1448 44.717 22.511 42.8772ZM39.9709 43.0393C39.1622 44.922 38.2429 46.5909 36.929 48.1672C36.9972 48.2015 37.0656 48.2356 37.136 48.2708C37.4087 48.178 37.669 48.0783 37.9338 47.9661C38.0522 47.9162 38.0524 47.9162 38.1731 47.8655C39.8843 47.1313 41.4234 46.1613 42.8411 44.9514C42.705 44.6395 42.5778 44.4634 42.302 44.2649C42.204 44.1936 42.2038 44.193 42.1038 44.1204C42.0349 44.0715 41.9658 44.023 41.8948 43.9729C41.8246 43.9224 41.7541 43.8715 41.6819 43.8196C40.9165 43.1884 40.9159 43.1887 40.0403 42.8772C40.006 42.9574 40.0058 42.9574 39.9709 43.0393ZM13.5901 32.5042C13.8844 36.6246 15.3461 40.5065 18.2581 43.4993C18.3078 43.4616 18.3572 43.4238 18.4084 43.385C18.9202 42.9989 19.4389 42.624 19.9631 42.2551C20.0398 42.2012 20.1166 42.1468 20.1956 42.0911C20.7199 41.7225 21.247 41.3591 21.7844 41.01C21.7146 40.3483 21.5831 39.7138 21.4348 39.0657C21.0399 37.2791 20.8184 35.5207 20.7112 33.6946C20.7001 33.5082 20.7002 33.5076 20.6887 33.3176C20.6826 33.2059 20.6755 33.0938 20.6692 32.9788C20.6596 32.7134 20.6603 32.7131 20.5403 32.5042H13.5901ZM41.7004 35.6165C41.4586 37.4473 41.1053 39.2194 40.6633 41.01C40.7674 41.0728 40.8715 41.1358 40.9788 41.2004C41.8145 41.7104 42.6076 42.2433 43.3733 42.8538C43.672 43.0857 43.9763 43.2933 44.2932 43.4993C47.0385 40.6793 48.9612 36.4763 48.9612 32.5042H41.9075C41.8389 33.5311 41.771 34.5585 41.7004 35.6165ZM32.1575 38.6243C33.15 38.7612 34.1425 38.8983 35.1653 39.0393C36.2963 39.3082 37.3704 39.5799 38.4504 39.9963C38.699 40.0923 38.699 40.0927 39.0032 40.0764C39.3797 38.4593 39.733 36.8502 39.9368 35.2014C39.9572 35.04 39.9569 35.0398 39.9778 34.8752C40.0641 34.0791 40.0403 33.3145 40.0403 32.5042H32.1575V38.6243ZM22.511 32.5042C22.5043 33.9947 22.5043 33.9954 22.634 35.4612C22.654 35.6147 22.6545 35.615 22.675 35.7717C22.8734 37.2154 23.1232 38.6805 23.5481 40.0764C23.9734 40.0208 24.3545 39.9157 24.7571 39.7688C25.6069 39.4605 26.4606 39.2421 27.3469 39.0657C27.4493 39.0451 27.5521 39.0244 27.6575 39.0032C28.5344 38.8354 29.3993 38.7356 30.2903 38.6243V32.5042H22.511ZM18.2581 19.5383C15.4668 22.4054 13.5902 26.61 13.5901 30.637H20.5403C20.6457 30.3209 20.6655 30.0791 20.6809 29.7473C20.8206 27.1232 21.2286 24.5741 21.8889 22.0286C21.7552 21.9569 21.7547 21.9564 21.6184 21.8831C20.7057 21.3832 19.8997 20.8099 19.0881 20.1614C18.8128 19.9521 18.5354 19.745 18.2581 19.5383ZM23.5481 22.9612C23.1636 24.5429 22.8098 26.1157 22.6145 27.7327C22.6044 27.8062 22.5945 27.8806 22.5842 27.9563C22.4738 28.8605 22.511 29.705 22.511 30.637H30.2903V24.4133C29.0581 24.2593 29.058 24.2599 27.801 24.1028C26.6308 23.8555 25.5183 23.5784 24.4026 23.1565C24.1011 23.0425 23.8737 22.9612 23.5481 22.9612ZM38.8997 22.9612C38.6371 22.9612 38.4482 23.0398 38.2004 23.1282C37.1894 23.4822 36.1851 23.8284 35.1331 24.0383C35.0241 24.0604 35.0235 24.0595 34.9124 24.0823C34.0007 24.251 33.0809 24.3161 32.1575 24.4133V30.637H40.0403C40.0433 29.1918 40.0437 29.1915 39.9241 27.7659C39.9108 27.659 39.8976 27.5518 39.884 27.4417C39.6431 25.1223 39.643 25.1218 38.8997 22.9612ZM44.2932 19.5383C44.0831 19.5384 43.9501 19.7475 43.801 19.8811C42.9535 20.6342 42.023 21.2221 41.053 21.8049C40.8553 21.9253 40.8555 21.9258 40.6633 22.1321C40.6865 22.362 40.686 22.3623 40.7639 22.6243C40.7906 22.7267 40.8174 22.8294 40.845 22.9348C40.8747 23.0463 40.9041 23.158 40.9348 23.2727C41.55 25.7184 41.7437 28.0974 41.9075 30.637H48.9612C48.824 29.0305 48.8237 29.0301 48.5266 27.467C48.493 27.3332 48.4933 27.3329 48.4592 27.1965C47.7408 24.4301 46.3797 21.545 44.2932 19.5383ZM30.2903 13.9377C29.3915 13.9378 28.2201 14.8676 27.6174 15.4592C27.5412 15.539 27.4644 15.6184 27.386 15.7004C27.2685 15.8186 27.2687 15.8192 27.1487 15.9397C26.0641 17.0784 25.3552 18.4412 24.6887 19.8499C24.6413 19.948 24.5941 20.0465 24.5452 20.1477C24.3593 20.5447 24.2747 20.7476 24.2747 21.1985C26.2245 21.9195 28.1902 22.5471 30.2903 22.5471V13.9377ZM32.1575 22.5471C33.5159 22.4739 33.5159 22.4733 34.8411 22.2678C34.9265 22.2502 35.0127 22.2332 35.1008 22.2151C36.1894 21.9798 37.2481 21.6216 38.2776 21.1985C38.2242 20.5526 37.9392 20.0165 37.6614 19.4417C37.6101 19.3356 37.5589 19.2288 37.5061 19.1194C36.4989 17.0763 35.0032 14.877 32.7795 14.0413C32.4717 13.9899 32.4716 13.9901 32.1575 13.9377V22.5471ZM25.5188 14.8713C23.6815 14.8714 21.4903 16.6737 20.1252 17.7756C19.9876 17.88 19.8492 17.9835 19.7102 18.0862C19.8692 18.5132 20.1743 18.7362 20.5276 19.0002C20.5866 19.0452 20.6453 19.0907 20.7063 19.137C21.2794 19.5641 21.8832 19.9233 22.511 20.2649C22.5601 20.1419 22.6088 20.0186 22.6594 19.8918C23.2796 18.3627 23.9812 16.9532 25.0061 15.6545C25.1984 15.4024 25.3614 15.1462 25.5188 14.8713ZM37.0325 14.8713C37.2309 15.2165 37.4486 15.5377 37.6868 15.8567C38.6945 17.2148 39.4639 18.6766 40.0403 20.2649C40.7659 19.8755 41.4335 19.4483 42.0823 18.9426C42.1456 18.8937 42.2093 18.8446 42.2747 18.7942C42.6423 18.5039 42.6424 18.5034 42.8411 18.0862C40.2053 15.8854 40.205 15.8858 37.0325 14.8713ZM7.88501 0.510011C8.36561 0.29829 8.66565 0.339879 9.15845 0.499269C9.56213 0.671429 9.94444 0.875798 10.3293 1.08618C10.4963 1.17539 10.4969 1.17585 10.6672 1.26685C11.0223 1.45699 11.3766 1.649 11.7307 1.84107C11.9627 1.96559 12.1949 2.08982 12.427 2.21411C13.3492 2.70894 14.2709 3.20432 15.1829 3.71802C15.3483 3.81064 15.3481 3.81106 15.5168 3.90552C15.7256 4.02261 15.9342 4.1408 16.1418 4.26001C16.2349 4.31208 16.3282 4.36457 16.4241 4.41821C16.5451 4.48709 16.5454 4.48741 16.6692 4.55786C16.9569 4.67307 17.1305 4.68233 17.4358 4.63013C17.6763 4.50442 17.6767 4.50456 17.9055 4.32349C17.9951 4.2569 18.0857 4.18993 18.178 4.12134C18.2735 4.04868 18.3686 3.9755 18.467 3.90064C18.5668 3.82652 18.667 3.75239 18.7698 3.67603C19.1963 3.35911 19.6206 3.03943 20.0452 2.71997C20.3556 2.487 20.6671 2.25516 20.9788 2.02368C21.0737 1.95147 21.1691 1.87933 21.2668 1.80493C22.0476 1.22526 22.7064 0.881486 23.7073 1.03931C23.8308 1.05637 23.9549 1.07349 24.0823 1.09107C25.1589 1.37265 25.7697 2.28012 26.3762 3.1438C26.4573 3.25584 26.5382 3.36788 26.6194 3.47974C27.5099 4.72407 27.5103 4.72435 27.4866 5.39771C27.4856 5.47053 27.4846 5.54338 27.4836 5.61841C27.3112 6.37179 26.8696 6.80516 26.2668 7.2356C26.1945 7.28905 26.1216 7.34263 26.0471 7.39771C25.806 7.57532 25.5632 7.7505 25.3206 7.92603C25.1466 8.05345 24.9728 8.18119 24.7991 8.30884C24.3279 8.65444 23.8558 8.99871 23.3831 9.34204C22.888 9.70187 22.3937 10.063 21.8997 10.4241C21.0698 11.0301 20.2387 11.6345 19.4075 12.2385C18.4469 12.9365 17.4877 13.6369 16.5295 14.3381C15.7062 14.9407 14.8817 15.5426 14.0569 16.1428C13.5644 16.5013 13.0717 16.8602 12.5803 17.22C12.1184 17.5581 11.6555 17.8951 11.1917 18.2307C11.0217 18.354 10.852 18.4775 10.6829 18.6018C10.4516 18.7718 10.2186 18.94 9.9856 19.1077C9.91936 19.1569 9.85267 19.2062 9.78442 19.2571C9.25846 19.6306 8.73787 19.8233 8.07837 19.7766C7.97476 19.7459 7.97411 19.7453 7.86841 19.7141C7.79862 19.6954 7.72841 19.6767 7.65649 19.6575C7.05043 19.357 6.66927 18.7824 6.28345 18.2483C6.22625 18.1701 6.16953 18.0915 6.1106 18.011C5.92264 17.7535 5.73517 17.4955 5.5481 17.2376C5.41732 17.058 5.28636 16.8779 5.15552 16.6985C4.88213 16.3234 4.60887 15.9481 4.33618 15.5725C3.986 15.0902 3.63469 14.6078 3.28345 14.1262C3.01371 13.7563 2.74419 13.3861 2.47485 13.0159C2.3455 12.8381 2.21569 12.6604 2.08618 12.4827C1.90588 12.2352 1.72593 11.9874 1.54614 11.7395C1.49235 11.6658 1.43847 11.5918 1.38306 11.5159C0.937516 10.9 0.937334 10.8996 0.935791 10.4329C1.10165 9.86386 1.42541 9.67616 1.89478 9.33618C2.03143 9.23344 2.16848 9.13059 2.30493 9.02759C2.45317 8.91686 2.60174 8.80594 2.75024 8.69556C2.85787 8.61525 2.8583 8.61532 2.96802 8.53345C3.03717 8.48295 3.10672 8.43215 3.17798 8.38013C3.23977 8.33469 3.30183 8.28925 3.36548 8.24243C3.70859 8.03226 3.92739 7.9742 4.32739 8.03833C4.81328 8.25044 5.10183 8.5503 5.46313 8.93091C5.60615 9.07684 5.74966 9.22262 5.89282 9.36841C5.96538 9.44307 6.0378 9.51806 6.11255 9.59497C6.46755 9.95845 6.8288 10.3155 7.19165 10.6711C7.25644 10.7359 7.32118 10.8007 7.38794 10.8674C7.44838 10.9267 7.50928 10.9861 7.57153 11.0471C7.62436 11.0994 7.67726 11.1524 7.73169 11.2063C7.89225 11.3509 7.89266 11.3511 8.19067 11.3723C8.43534 11.22 8.66294 11.0641 8.8938 10.8928C8.96169 10.8434 9.0299 10.7934 9.09985 10.7424C9.24311 10.6378 9.38592 10.5325 9.52856 10.427C9.74771 10.2651 9.96827 10.1047 10.1887 9.94458C10.3277 9.84272 10.4668 9.73999 10.6057 9.63794C10.6719 9.58971 10.7387 9.54211 10.8069 9.49243C11.1506 9.2718 11.1509 9.27156 11.3049 8.92017C11.1623 8.75623 11.1614 8.75618 10.9641 8.58521C10.8889 8.517 10.814 8.44845 10.7366 8.37818C10.6119 8.26681 10.6118 8.26618 10.4846 8.15259C10.399 8.07516 10.3131 7.99798 10.2249 7.91821C9.94831 7.66836 9.67021 7.41908 9.39282 7.17017C8.68083 6.5291 7.96997 5.8868 7.26099 5.24243C7.17537 5.16482 7.08942 5.08704 7.00122 5.00708C6.75736 4.78527 6.51488 4.56179 6.27271 4.33814C6.19991 4.2722 6.12698 4.20587 6.052 4.13794C5.386 3.51778 5.38582 3.51766 5.29517 3.04419C5.41669 2.28551 5.87098 1.99898 6.45239 1.56763C6.51417 1.52318 6.57626 1.47866 6.63989 1.43286C6.82788 1.29664 7.01232 1.15613 7.19653 1.01489C7.31649 0.926793 7.43649 0.838727 7.55688 0.751222C7.66489 0.671644 7.77373 0.591997 7.88501 0.510011ZM23.4495 2.9104C22.9637 2.88103 22.8143 2.99057 22.426 3.27661C22.3664 3.31973 22.3068 3.36305 22.2454 3.40747C22.0458 3.55244 21.8481 3.7 21.6506 3.8479C21.5079 3.95249 21.3649 4.05713 21.2219 4.16138C20.8337 4.44499 20.4468 4.73127 20.0608 5.01782C19.6567 5.31715 19.2507 5.61428 18.845 5.91138C18.0767 6.4746 17.3095 7.03969 16.5432 7.60571C15.1703 8.61961 13.795 9.63 12.4192 10.6399C11.9363 10.9945 11.4537 11.3502 10.9719 11.7063C10.6725 11.9275 10.3724 12.1478 10.0725 12.3684C9.93335 12.471 9.79436 12.574 9.65552 12.677C9.46618 12.8174 9.27618 12.9574 9.08618 13.0969C8.98016 13.1752 8.87413 13.2536 8.76489 13.3342C8.37444 13.5903 8.17168 13.681 7.70923 13.6018C7.24643 13.4034 6.97219 13.1379 6.62524 12.7805C6.5267 12.6824 6.52653 12.6823 6.42603 12.5823C6.13745 12.2945 5.85205 12.0031 5.56763 11.7112C5.41886 11.5586 5.26996 11.406 5.12036 11.2542C4.97811 11.1096 4.8365 10.9644 4.69653 10.8176C4.63208 10.7521 4.56761 10.6859 4.50122 10.6184C4.44478 10.5599 4.38752 10.501 4.32935 10.4407C4.16269 10.3056 4.16243 10.3058 3.95239 10.2932C3.6527 10.3644 3.652 10.3641 3.2395 10.8069C4.92229 13.1145 6.60533 15.4223 8.33911 17.8001C8.86711 17.4738 9.37322 17.1498 9.87134 16.7844C9.93883 16.7353 10.0069 16.6856 10.0764 16.635C10.2999 16.4722 10.5231 16.3089 10.7463 16.1458C10.9076 16.0281 11.0694 15.9097 11.2307 15.7922C11.6667 15.4743 12.1027 15.1565 12.5383 14.8381C12.9943 14.5051 13.4503 14.1719 13.9065 13.8391C14.7698 13.2093 15.6333 12.5787 16.4963 11.9485C17.4791 11.2308 18.4625 10.5134 19.4456 9.79614C21.4669 8.32118 23.4882 6.84603 25.509 5.37036C25.4311 5.24279 25.3529 5.11497 25.2747 4.98755C25.2094 4.881 25.2094 4.88045 25.1428 4.77173C24.9321 4.43828 24.7015 4.12067 24.468 3.80298C24.4224 3.73996 24.3773 3.67652 24.3303 3.61157C23.9823 3.13163 23.9817 3.13161 23.4495 2.9104ZM7.8186 3.01978C8.04267 3.34291 8.27302 3.61199 8.5647 3.87525C8.64354 3.94681 8.7227 4.01831 8.80396 4.09204C8.88861 4.16809 8.97356 4.24416 9.06079 4.32251C9.1485 4.40196 9.23605 4.48186 9.32642 4.56372C9.6066 4.81737 9.88745 5.07049 10.1682 5.32349C10.4478 5.57606 10.7277 5.82848 11.0071 6.0813C11.1807 6.23839 11.3546 6.39528 11.5286 6.552C11.6083 6.62402 11.6876 6.69657 11.7698 6.77075C11.8827 6.87243 11.8832 6.8722 11.9983 6.97583C12.1931 7.15728 12.3758 7.34615 12.5588 7.53931C12.8081 7.81835 12.8079 7.81832 13.0608 7.802C13.3548 7.74022 13.5368 7.59819 13.7786 7.42114C13.8732 7.35206 13.9682 7.28333 14.0657 7.21216C14.1637 7.1392 14.2615 7.06566 14.3625 6.99048C14.4621 6.91821 14.5618 6.84618 14.6643 6.77173C15.168 6.4657 15.1681 6.46539 15.4368 5.99732C14.7238 5.61909 14.0111 5.24063 13.2981 4.86255C12.9669 4.68691 12.6351 4.51189 12.304 4.33618C11.9835 4.16617 11.6635 3.99535 11.343 3.82544C11.1632 3.73011 10.9827 3.63469 10.803 3.53931C10.0871 3.15988 9.3692 2.78478 8.64868 2.41431C8.37488 2.61396 8.10069 2.81407 7.8186 3.01978ZM20.2258 4.96509C20.6782 5.38313 21.1017 5.81457 21.509 6.27661C21.3315 6.63973 21.0972 6.8814 20.802 7.15552C20.718 7.23545 20.6339 7.31536 20.5471 7.39771C20.3011 7.56485 20.3013 7.56495 20.0979 7.56275C19.799 7.38465 19.603 7.15095 19.3752 6.88892C19.2877 6.78906 19.1999 6.68904 19.1096 6.58618C19.0434 6.50904 18.9768 6.43129 18.9084 6.35181C19.0935 5.95607 19.3704 5.71796 19.6956 5.43189C19.7944 5.34432 19.8935 5.25646 19.9954 5.16626C20.0712 5.09996 20.1477 5.0334 20.2258 4.96509Z" fill="black"/>
</svg>
