<svg width="131" height="85" viewBox="0 0 131 85" fill="none" xmlns="http://www.w3.org/2000/svg">
<rect x="34.4598" y="42.401" width="21" height="2" rx="1" fill="#000099"/>
<rect x="0.459839" y="39.401" width="15" height="2" rx="1" fill="#000099"/>
<rect x="23.4598" y="37.401" width="36" height="2" rx="1" fill="#000099"/>
<rect x="18.4598" y="42.401" width="9" height="2" rx="1" fill="#000099"/>
<path d="M130.396 35.9074C129.613 32.7136 126.83 30.0258 123.734 29.4996C122.952 29.3723 120.657 29.3855 114.879 29.5672C108.84 29.7337 107.066 29.7439 106.918 29.5963C106.82 29.4815 103.348 23.0389 99.2173 15.2646C94.4778 6.33982 91.5166 0.96582 91.2057 0.687341L90.7309 0.228456L85.8312 0.256649C81.7943 0.279878 80.8665 0.334675 80.4771 0.534752C79.909 0.834775 79.6673 1.24832 79.6711 1.90776C79.6726 2.17153 80.7568 6.73201 82.0898 12.0329C83.4225 17.3339 84.5061 21.746 84.5066 21.8449C84.5073 21.9603 84.0682 22.0288 83.3845 22.0327C82.4078 22.0383 82.18 22.0891 81.7592 22.4706C81.3541 22.8193 81.2576 23.0176 81.2607 23.5616C81.2685 24.9134 81.9385 25.3383 84.0707 25.326L85.4382 25.3181L86.0382 27.7382C86.3714 29.0716 86.6058 30.2078 86.5573 30.2575C86.5251 30.3072 83.205 30.4417 79.2173 30.5636C73.8951 30.7262 71.8927 30.7377 71.7618 30.6065C71.6636 30.5081 70.4019 29.0647 68.9596 27.3914C67.5012 25.7182 66.1248 24.1763 65.8794 23.947L65.4376 23.5373L61.1564 23.5619C54.645 23.5994 54.8535 23.0541 57.9157 31.8732L60.1669 38.3228L59.0784 41.5439L58.0061 44.7651L56.709 45.6463C55.0549 46.7603 52.2389 49.6287 51.1418 51.3166C46.7684 57.9857 46.2949 66.2316 49.8836 73.1353C52.9946 79.1185 58.0305 82.9306 64.762 84.3922C66.5224 84.7777 70.7223 84.7535 72.6246 84.3634C77.096 83.4311 80.6333 81.4489 83.8697 78.0668L85.763 76.0941L88.4651 76.0785L91.1672 76.063L91.6368 75.6152C91.9444 75.3168 94.9402 69.7271 99.6095 60.7646L107.096 46.3785L108.041 46.3731C108.562 46.3701 112.241 46.4148 116.229 46.4578C122.627 46.5363 123.588 46.5144 124.433 46.2788C125.863 45.8913 126.918 45.2423 128.115 44.0319C130.268 41.8598 131.129 38.8213 130.396 35.9074ZM126.775 40.3467C126.164 41.6196 125.095 42.582 123.779 43.0016C122.95 43.2702 121.99 43.2757 106.165 43.0207C96.9669 42.8757 85.994 42.7081 81.7776 42.6498C75.7864 42.5525 73.7834 42.465 72.5776 42.2412C70.2962 41.8421 66.3245 41.898 64.2762 42.3879C63.4308 42.5741 62.5855 42.7933 62.3906 42.8439C62.0654 42.9447 62.0973 42.8125 62.7536 40.8633C63.1214 39.7072 63.4403 38.5514 63.4388 38.304C63.4368 37.9413 61.9791 33.5809 59.9766 27.9046L59.6456 26.9502L61.9571 26.9369L64.2686 26.9403L66.8417 29.9259C70.0374 33.6499 70.3158 33.9121 70.8699 34.0243C71.1142 34.0724 75.33 33.9822 80.2616 33.8385C85.177 33.6782 93.1035 33.4513 97.8401 33.3415C102.593 33.2152 110.161 33.0068 114.686 32.882C122.336 32.6565 122.971 32.6528 123.754 32.9122C126.82 33.9167 128.207 37.3545 126.775 40.3467ZM96.3562 30.1022L89.9919 30.2378L89.4418 27.9825C89.1254 26.7311 88.8421 25.6118 88.7929 25.5132C88.7595 25.3815 88.8729 25.2984 89.1172 25.297C90.81 25.2872 91.6631 23.6007 90.5497 22.4695C90.1076 22.0435 89.961 21.9949 89.0167 22.0003L87.9586 22.0064L85.6928 12.9849C84.4433 8.01322 83.4265 3.86451 83.4259 3.76558C83.4251 3.61722 84.1572 3.56355 86.3713 3.58378L89.3016 3.61637L96.279 16.6829C102.039 27.4813 103.208 29.7661 102.98 29.8497C102.834 29.9001 99.8394 30.0163 96.3562 30.1022ZM96.4778 59.711L89.699 72.6918L88.7227 72.7469C88.1695 72.7832 87.7299 72.769 87.7296 72.7196C87.7293 72.6701 87.9696 72.0093 88.2746 71.2492C90.1355 66.4905 90.2532 61.4779 88.6289 56.4424C87.9163 54.2539 87.9005 54.3199 89.1864 54.3125C90.1469 54.307 90.2929 54.2566 90.7302 53.8255C91.8304 52.6816 90.958 51.005 89.2652 51.0147C89.0209 51.0161 88.9065 50.9345 88.9385 50.8189C88.9865 50.703 89.2569 49.5806 89.5588 48.3259L90.0829 46.0477L94.5763 46.1209C101.365 46.2136 103.401 46.3172 103.321 46.5485C103.272 46.6477 100.197 52.5675 96.4778 59.711ZM86.19 48.4771C85.9517 49.4842 85.7125 50.3593 85.6478 50.4256C85.5831 50.4919 85.3375 50.2625 85.0914 49.9178C84.6153 49.2281 82.2742 46.9005 81.4731 46.3116L80.9826 45.9681L83.5058 45.9372C86.3383 45.9209 86.8106 46.0007 86.699 46.3969C86.651 46.5456 86.4285 47.4866 86.19 48.4771ZM86.1664 66.9915C84.7089 73.9735 79.2872 79.4946 72.3451 81.0679C70.5731 81.4737 66.9756 81.4944 65.1502 81.1093C56.4791 79.2633 50.4111 71.4506 50.7671 62.6119C50.9107 59.2809 51.8539 56.2748 53.6449 53.4948C55.9521 49.8876 59.5177 47.1797 63.5155 45.9863C68.6184 44.473 73.8972 45.2505 78.3417 48.143C82.5903 50.9378 85.5306 55.537 86.3579 60.676C86.5612 62.0431 86.4673 65.5389 86.1664 66.9915Z" fill="#000099"/>
<path d="M75.7968 57.2387C75.7291 56.7773 75.0414 56.0888 74.5688 56.0092C73.7217 55.8656 73.3812 56.115 71.0185 58.5025L68.6233 60.9234L66.2166 58.5301C63.843 56.2027 63.4671 55.9411 62.6214 56.078C62.1661 56.1465 61.4864 56.8429 61.4076 57.3215C61.2662 58.1794 61.5123 58.5243 63.8701 60.9177L66.2605 63.3439L63.8982 65.7975C61.6005 68.1848 61.3422 68.5654 61.4773 69.422C61.5452 69.8831 62.2327 70.5716 62.7052 70.6512C63.5525 70.7948 63.8928 70.5457 66.2558 68.158L68.651 65.7371L71.0739 68.1303C73.4639 70.4906 73.8073 70.7358 74.6527 70.5825C75.1243 70.4975 75.7879 69.8176 75.8664 69.3392C76.008 68.4811 75.7618 68.1361 73.4042 65.7428L71.0135 63.3165L73.3762 60.8794C75.6738 58.4757 75.9321 58.095 75.7968 57.2387Z" fill="#000099"/>
</svg>
