<svg width="23" height="15" viewBox="0 0 23 15" fill="none" xmlns="http://www.w3.org/2000/svg">
<path d="M0.74575 15V14.0525H22.528V15H0.74575ZM1.8485 10.3733C1.7835 10.1987 1.77145 10.0093 1.81383 9.82801C1.85621 9.64677 1.95121 9.48159 2.08723 9.35252L0 6.76536L2.30952 5.68739L5.76012 6.9982L9.07603 5.42654L3.8722 0.160637L7.62505 0L13.9261 3.16388L17.5892 1.45853C18.2871 1.06621 19.0721 0.848197 19.8754 0.823579C20.6787 0.798962 21.4759 0.968481 22.1973 1.3173C22.4324 1.41699 22.6333 1.58144 22.7757 1.79085C22.9181 2.00026 22.996 2.24571 23 2.49768C22.9715 3.10889 22.4086 3.66081 21.2774 4.18793L8.18134 10.2839C7.0735 10.7426 5.89673 11.0193 4.69789 11.1031C4.42485 11.1247 4.16934 11.1355 3.93134 11.1355C2.78588 11.1366 2.08066 10.8811 1.8485 10.3733ZM1.49479 7.1114L3.37504 9.44197L3.03557 9.74057C2.93744 9.82288 2.84826 9.91501 2.76947 10.0155C3.40328 10.2177 4.07772 10.2644 4.73403 10.1513C5.78188 10.0695 6.81004 9.82539 7.78055 9.42795L20.8766 3.33202C22.0243 2.79303 22.0539 2.45779 22.0539 2.45564C22.0539 2.40605 21.9695 2.27994 21.7253 2.13226C21.1382 1.85109 20.4885 1.72017 19.8364 1.75164C19.1843 1.78311 18.5508 1.97593 17.9944 2.31227L13.9152 4.21165L7.42465 0.952931L6.05032 1.01224L10.6902 5.70679L5.80502 8.02338L2.35114 6.71147L1.49479 7.1114Z" fill="#304CB2"/>
</svg>
