<svg id="ic_nav_inbound_-_arrival" data-name="ic_nav_inbound - arrival" xmlns="http://www.w3.org/2000/svg" width="52" height="52" viewBox="0 0 52 52">
  <rect id="Rectangle_705" data-name="Rectangle 705" width="52" height="52" fill="#1f212b" opacity="0"/>
  <path id="Path_1264" data-name="Path 1264" d="M22.961,3.117a2.516,2.516,0,0,1,2.411,1.807l6.056,19.9,12.465,3.345A3.536,3.536,0,0,1,42.063,35L4.9,25.015a2.344,2.344,0,0,1-1.738-2.284V13.9a1.157,1.157,0,0,1,1.478-1.131l.776.212a2.33,2.33,0,0,1,1.573,1.389l1.759,4.381,11.691,3.111V5.654a2.528,2.528,0,0,1,2.518-2.537m0-2.167h0a4.7,4.7,0,0,0-4.684,4.7V19.042L10.36,16.936,9,13.56a4.485,4.485,0,0,0-3.04-2.678l-.747-.206A3.326,3.326,0,0,0,1,13.9v8.833a4.487,4.487,0,0,0,3.332,4.374L41.5,37.1A5.7,5.7,0,0,0,44.47,26.083L33.153,23.046,27.446,4.291A4.69,4.69,0,0,0,22.961.95Z" transform="translate(1.167 1.048)" fill="#1f212b"/>
  <path id="Path_1265" data-name="Path 1265" d="M47.583,24.185H2.083a1.083,1.083,0,0,1,0-2.167h45.5a1.083,1.083,0,0,1,0,2.167Z" transform="translate(1.167 25.627)" fill="#1f212b"/>
</svg>
