<svg width="36" height="38" viewBox="0 0 36 38" xmlns="http://www.w3.org/2000/svg">
  <!-- User head (outlined, but expanded to fill) -->
  <path d="M18 2
           a8 8 0 1 1 0 16
           a8 8 0 1 1 0-16
           m0 2
           a6 6 0 1 0 0 12
           a6 6 0 1 0 0-12Z" fill="#0E2071"/>
  <!-- User torso outline (expanded stroke as filled path) -->
  <path d="M6 34
           v-2
           c0-7.18 5.82-13 13-13s13 5.82 13 13v2h-2v-2
           c0-6.07-4.93-11-11-11s-11 4.93-11 11v2H6Z" fill="#0E2071"/>
  <!-- Clock solid -->
  <circle cx="27" cy="29" r="8" fill="#0E2071"/>
  <!-- Clock hands (cutouts in solid clock) -->
  <path d="M27 25v4l3 2" fill="none" stroke="#FFFFFF" stroke-width="2" stroke-linecap="round" stroke-linejoin="round"/>
</svg>
