<svg width="50" height="50" viewBox="0 0 50 50" fill="none" xmlns="http://www.w3.org/2000/svg">
<g clip-path="url(#clip0_9676_8420)">
<path d="M30.6505 10.1886C32.3134 11.7479 33.2599 13.7215 33.4733 15.9844C33.4917 15.8757 33.51 15.7671 33.5289 15.6551C33.8874 13.7513 34.657 12.2861 36.2182 11.0797C37.7235 10.0793 39.4149 9.64872 41.2048 9.93183C43.124 10.3475 44.6697 11.3811 45.7544 13.0222C46.6934 14.7042 46.9712 16.4904 46.4497 18.3523C46.0655 19.4674 45.5304 20.3863 44.6986 21.2229C44.8253 21.279 44.952 21.3351 45.0825 21.3929C47.1889 22.3623 48.5931 23.7188 49.5576 25.8582C49.8783 26.7302 49.9766 27.5138 49.9791 28.4356C49.9798 28.5492 49.9806 28.6629 49.9816 28.7801C49.9828 29.0186 49.9833 29.2572 49.9833 29.4958C49.9839 29.8609 49.9884 30.2258 49.9931 30.591C49.9939 30.8236 49.9944 31.0561 49.9945 31.2887C49.9964 31.3976 49.9981 31.5065 50 31.6186C49.9944 32.3703 49.9944 32.3703 49.7119 32.7548C49.4744 32.9216 49.2534 33.068 48.9914 33.1922C48.907 33.2324 48.8226 33.2727 48.7356 33.3141C48.6011 33.3755 48.6011 33.3755 48.4638 33.4383C48.3696 33.4815 48.2754 33.525 48.1782 33.5697C46.8894 34.151 45.5785 34.5586 44.1998 34.8648C44.1012 34.8873 44.0028 34.9096 43.9014 34.9329C43.3019 35.0576 42.8107 35.0876 42.2041 34.9428C41.8444 34.62 41.724 34.4194 41.6351 33.9449C41.7087 33.5518 41.8126 33.3692 42.101 33.0956C42.6037 32.7679 43.2224 32.6984 43.8022 32.5807C44.9336 32.3323 45.9938 32.0345 47.0669 31.6001C47.3625 31.4823 47.6339 31.3979 47.9415 31.3257C47.9209 30.8045 47.8967 30.2836 47.8692 29.7628C47.8604 29.5864 47.8525 29.41 47.8456 29.2335C47.7753 27.4465 47.3841 25.8945 46.0706 24.5904C45.0669 23.7651 43.8878 23.209 42.5784 23.1984C42.4576 23.1972 42.3369 23.196 42.2124 23.1948C42.0832 23.1943 41.9538 23.1937 41.8207 23.1932C41.6188 23.1921 41.6188 23.1921 41.4129 23.191C41.1283 23.1899 40.8436 23.189 40.559 23.1886C40.1265 23.1873 39.6941 23.1835 39.2616 23.1795C38.9843 23.1787 38.707 23.1781 38.4297 23.1776C38.3017 23.176 38.1736 23.1745 38.0418 23.1729C36.9474 23.1763 35.9716 23.3767 35.0403 23.9747C34.94 24.0378 34.8398 24.101 34.7367 24.1661C34.523 24.3069 34.3099 24.4486 34.0969 24.5904C34.2702 24.9854 34.3767 25.1141 34.7284 25.4013C36.4913 26.8716 37.6042 29.3227 37.8387 31.5751C37.8816 32.4371 37.8777 33.3017 37.8824 34.1646C37.8844 34.4447 37.8879 34.7248 37.8926 35.0049C37.8994 35.4107 37.9021 35.8164 37.904 36.2221C37.9068 36.3471 37.9096 36.4721 37.9126 36.6008C37.9099 37.4687 37.9099 37.4687 37.5482 37.9426C37.1586 38.2267 36.7635 38.4531 36.3264 38.6533C36.2361 38.695 36.1458 38.7365 36.0526 38.7793C29.4586 41.7098 22.0975 41.9211 15.3595 39.3574C14.7433 39.1126 14.1437 38.8359 13.5484 38.5442C13.4234 38.4834 13.4234 38.4834 13.2959 38.4214C12.8293 38.185 12.4521 37.9874 12.1453 37.562C12.0708 37.1314 12.0784 36.7054 12.0834 36.2693C12.0832 36.1417 12.083 36.0139 12.0828 35.8823C12.083 35.6113 12.0845 35.3402 12.0871 35.0693C12.0906 34.6605 12.0897 34.2521 12.088 33.8434C12.0897 32.0616 12.1484 30.3196 12.917 28.6753C12.9544 28.5928 12.9918 28.5103 13.0303 28.4253C13.3913 27.6587 13.8515 26.9903 14.3903 26.3366C14.5068 26.1941 14.5068 26.1941 14.6256 26.0487C15.0147 25.5888 15.4128 25.2135 15.887 24.8399C15.887 24.7576 15.887 24.6753 15.887 24.5904C14.8289 23.7965 13.736 23.2092 12.3949 23.1984C12.2741 23.1972 12.1533 23.196 12.0289 23.1948C11.8996 23.1943 11.7703 23.1937 11.6371 23.1932C11.4352 23.1921 11.4352 23.1921 11.2293 23.191C10.9447 23.1899 10.66 23.189 10.3754 23.1886C9.94291 23.1873 9.5105 23.1835 9.07803 23.1795C8.80074 23.1787 8.52343 23.1781 8.24614 23.1776C8.05411 23.1753 8.05411 23.1753 7.8582 23.1729C6.311 23.1776 4.90659 23.6876 3.75065 24.7332C2.46431 26.1412 2.23479 27.6391 2.14383 29.4627C2.13366 29.6437 2.12335 29.825 2.1129 30.006C2.08782 30.4458 2.06464 30.8858 2.0425 31.3257C2.11132 31.3484 2.18014 31.3712 2.25105 31.3946C2.7309 31.5538 3.20992 31.7147 3.68683 31.8825C4.75278 32.2534 5.80098 32.5652 6.91602 32.7529C7.54899 32.873 7.87966 33.0646 8.27877 33.5707C8.36762 34.0446 8.31777 34.2489 8.08389 34.6698C7.6831 35.0296 7.44184 35.0304 6.9068 35.0674C6.53858 35.0332 6.18386 34.961 5.82324 34.8803C5.66979 34.8467 5.66979 34.8467 5.51325 34.8123C3.6411 34.3796 1.80023 33.7318 0.171617 32.6977C-0.0390465 32.2764 0.0211198 31.7986 0.017172 31.3349C0.0161652 31.2229 0.0151585 31.1107 0.0141213 30.9953C0.0123932 30.757 0.0110567 30.5186 0.010077 30.2804C0.00865019 30.039 0.00611543 29.7978 0.00240351 29.5564C-0.0353944 27.0997 0.359583 25.1096 2.11655 23.2619C3.07672 22.3251 4.04493 21.7362 5.28536 21.2229C5.23247 21.1711 5.17957 21.1194 5.12508 21.066C3.77559 19.6483 3.22059 17.9452 3.25906 16.0127C3.39348 14.2503 4.25739 12.6888 5.53481 11.4943C6.87124 10.3539 8.4767 9.81878 10.2223 9.83829C12.1406 9.99395 13.7249 10.8337 15.014 12.2427C15.8906 13.4304 16.3152 14.5376 16.5106 15.9844C16.5305 15.8577 16.5502 15.731 16.5706 15.6005C16.845 13.9412 17.3285 12.5826 18.3815 11.2449C18.4543 11.15 18.5273 11.0551 18.6023 10.9574C19.953 9.31368 21.9187 8.35463 24.0019 8.04098C26.5057 7.80868 28.7559 8.56931 30.6505 10.1886ZM20.5019 11.9932C19.1895 13.4264 18.6018 15.08 18.6388 17.0154C18.7972 18.6243 19.6182 20.1368 20.8054 21.2171C22.306 22.4139 23.9705 22.9861 25.8884 22.7898C27.5693 22.486 29.0721 21.5854 30.1057 20.2251C31.1231 18.6916 31.5885 16.9992 31.2287 15.1596C30.6928 13.3516 29.6894 11.8805 28.0269 10.933C25.4702 9.58914 22.6208 10.0446 20.5019 11.9932ZM6.40789 13.6551C5.6293 14.6883 5.24091 15.8092 5.41009 17.107C5.70438 18.4435 6.35344 19.5242 7.48462 20.3143C8.6199 20.9306 9.77623 21.1545 11.0227 20.8253C12.233 20.4256 13.3256 19.6257 13.9382 18.4867C14.4404 17.3372 14.55 16.1713 14.1292 14.972C13.5245 13.6519 12.6822 12.7904 11.3443 12.2271C9.52037 11.608 7.64812 12.2138 6.40789 13.6551ZM36.5701 13.7033C35.763 14.7138 35.5054 15.8886 35.6214 17.162C35.848 18.4271 36.5957 19.4364 37.5893 20.2251C38.8336 20.941 39.9865 21.1579 41.3778 20.7864C42.6495 20.3664 43.5962 19.5513 44.1998 18.3542C44.7241 17.1082 44.7036 15.9858 44.2391 14.7235C43.7123 13.5668 42.7913 12.6949 41.6048 12.2305C39.6533 11.6493 37.9533 12.2492 36.5701 13.7033ZM16.5106 16.8575C16.2824 17.0858 16.2933 17.4621 16.2379 17.7696C15.9482 19.1448 15.3807 20.2267 14.3903 21.2229C14.7744 21.479 15.1561 21.6537 15.5752 21.8465C16.391 22.2324 16.9497 22.7027 17.5708 23.3627C17.8684 23.6324 17.8684 23.6324 18.2578 23.5776C18.751 23.4335 18.751 23.4335 19.2391 23.2731C19.3364 23.2395 19.4339 23.2059 19.5343 23.1712C19.6067 23.1457 19.679 23.1201 19.7535 23.0938C19.6618 23.0036 19.5703 22.9134 19.4758 22.8205C17.8069 21.1304 16.8301 19.2336 16.6353 16.8575C16.5942 16.8575 16.5531 16.8575 16.5106 16.8575ZM33.3486 16.8575C33.3392 16.9619 33.33 17.0662 33.3203 17.1737C33.0488 19.5778 31.937 21.4054 30.2305 23.0938C30.4689 23.1812 30.7081 23.2665 30.9476 23.351C31.1473 23.4227 31.1473 23.4227 31.351 23.4957C31.7307 23.5935 31.8767 23.631 32.2261 23.468C32.4145 23.3036 32.5956 23.1308 32.7718 22.9535C33.4112 22.356 34.0599 22.0127 34.8448 21.6482C35.2299 21.4788 35.2299 21.4788 35.5936 21.2229C35.5393 21.1682 35.4849 21.1136 35.429 21.0573C34.4025 19.9642 33.9282 18.7921 33.6779 17.3238C33.6384 17.1547 33.6384 17.1547 33.5981 16.9822C33.5158 16.9411 33.4334 16.8999 33.3486 16.8575ZM15.984 27.7875C14.4741 29.7687 14.2063 31.75 14.2422 34.1632C14.2441 34.3847 14.2458 34.6062 14.2473 34.8278C14.2514 35.3651 14.2578 35.9022 14.2656 36.4395C15.2417 36.9444 16.2019 37.4276 17.2512 37.7646C17.361 37.8002 17.4707 37.8359 17.5838 37.8726C19.7649 38.5592 21.9628 38.9331 24.2436 39.0587C24.3783 39.0662 24.5128 39.0738 24.6514 39.0815C25.0171 39.0904 25.375 39.0791 25.7403 39.0587C25.8334 39.0535 25.9264 39.0484 26.0223 39.0432C28.3256 38.9046 30.538 38.4775 32.7327 37.7646C32.8319 37.7327 32.9311 37.7009 33.0335 37.6681C33.9712 37.3475 34.8401 36.8939 35.7183 36.4395C35.731 35.7988 35.7399 35.1581 35.7458 34.5172C35.7483 34.3002 35.7516 34.083 35.756 33.866C35.806 31.3206 35.3119 29.1346 33.5054 27.2237C31.9466 25.6484 30.0604 24.9449 27.8713 24.9237C27.6946 24.9232 27.5179 24.9229 27.3414 24.9227C27.1567 24.922 26.9722 24.9212 26.7877 24.9202C26.4016 24.9188 26.0157 24.9184 25.6297 24.9185C25.1399 24.9185 24.6503 24.9151 24.1605 24.9107C23.7793 24.9079 23.3982 24.9074 23.017 24.9076C22.8367 24.9073 22.6565 24.9062 22.4762 24.9043C19.8643 24.8787 17.6864 25.7709 15.984 27.7875Z" fill="black"/>
</g>
<defs>
<clipPath id="clip0_9676_8420">
<rect width="50" height="50" fill="white"/>
</clipPath>
</defs>
</svg>
